<svg width="128" height="128" viewBox="0 0 128 128" fill="none" xmlns="http://www.w3.org/2000/svg">
<g clip-path="url(#clip0_3100_193424)">
<rect width="128" height="128" rx="64" fill="black"/>
<path opacity="0.8" d="M100.922 93.2695L107.809 81.3739C108.4 80.3652 109.652 80.0174 110.661 80.6087L119.426 85.6521C120.539 86.313 122 85.7913 122.452 84.5739C124.713 78.1391 126 71.2174 126 64.0174C126 56.8174 124.713 49.8956 122.452 43.4608C122.035 42.2434 120.574 41.7217 119.426 42.3826L110.661 47.4261C109.652 48.0174 108.4 47.6695 107.809 46.6608L100.922 34.7652C100.33 33.7565 100.678 32.5043 101.687 31.913L110.417 26.8695C111.53 26.2087 111.843 24.6782 110.974 23.7043C102 13.2347 89.5478 5.82605 75.3913 3.14779C74.1391 2.90431 72.9565 3.913 72.9565 5.19996V14.3826C72.9565 16.4347 72.0174 17.3739 70.8696 17.3739H57.1304C55.9826 17.3739 55.0435 16.4347 55.0435 15.2869V5.26953C55.0435 3.98257 53.8609 2.97387 52.6087 3.18257C38.4522 5.82605 26.0348 13.2347 17.0261 23.7043C16.1913 24.6782 16.4696 26.2087 17.5826 26.8695L26.313 31.913C27.3217 32.5043 27.6696 33.7565 27.0783 34.7652L20.1913 46.6608C19.6 47.6695 18.3478 48.0174 17.3391 47.4261L8.57391 42.3826C7.46087 41.7217 6 42.2434 5.54783 43.4608C3.28696 49.8956 2 56.8174 2 64.0174C2 71.2174 3.28696 78.1391 5.54783 84.5739C5.96522 85.7913 7.42609 86.313 8.57391 85.6521L17.3391 80.6087C18.3478 80.0174 19.6 80.3652 20.1913 81.3739L27.0783 93.2695C27.6696 94.2782 27.3217 95.5304 26.313 96.1217L17.5826 101.165C16.4696 101.826 16.1565 103.356 17.0261 104.33C26.0348 114.8 38.487 122.209 52.6087 124.852C53.8957 125.096 55.0435 124.087 55.0435 122.8V113.617C55.0435 111.565 55.9826 110.626 57.1304 110.626H70.8696C72.0174 110.626 72.9565 111.565 72.9565 112.713V122.765C72.9565 124.052 74.1391 125.061 75.3913 124.852C89.5478 122.209 101.965 114.8 110.974 104.33C111.809 103.356 111.53 101.826 110.417 101.165L101.687 96.1217C100.678 95.5304 100.33 94.2782 100.922 93.2695ZM63.9826 105.304C41.2 105.304 22.6957 86.8348 22.6957 64.0174C22.6957 41.2 41.1652 22.7304 63.9826 22.7304C86.8 22.7304 105.27 41.2 105.27 64.0174C105.27 86.8348 86.8 105.304 63.9826 105.304Z" fill="url(#paint0_linear_3100_193424)"/>
<path d="M100.259 45.1877L97.8033 47.5485C94.6767 50.5539 91.5663 54.747 88.5061 60.3779L79.2652 86.9992H89.293V113C89.293 114.657 87.9499 116 86.293 116H36.0431C34.3863 116 33.0431 114.657 33.0431 113V86.9992H44.6132L50.0286 63.9602L27.7407 63.207V27C27.7407 25.3431 29.0839 24 30.7407 24H97.2593C98.9162 24 100.259 25.3431 100.259 27V45.1877Z" fill="black"/>
<path d="M70.4467 94.9992H81.2925V108H41.0426V94.9992H51.3863C52.4909 86.251 55.0618 77.3813 59.0788 68.3496C63.1158 59.3179 68.1972 51.4404 74.3231 44.7173H49.5385V55.207H35.7402V32H92.2588V41.781C88.3825 45.5071 84.8074 50.4279 81.4733 56.5638C78.1593 62.6795 75.5282 69.1799 73.58 76.0245C71.6317 82.8894 70.5873 89.2076 70.4467 94.979V94.9992Z" fill="url(#paint1_linear_3100_193424)"/>
</g>
<defs>
<linearGradient id="paint0_linear_3100_193424" x1="61.5478" y1="-20.2261" x2="66.313" y2="143.009" gradientUnits="userSpaceOnUse">
<stop stop-color="#BB772D"/>
<stop offset="0.29" stop-color="#FCF296"/>
<stop offset="0.48" stop-color="#FFFCE0"/>
<stop offset="0.7" stop-color="#FCF296"/>
<stop offset="1" stop-color="#BB772D"/>
</linearGradient>
<linearGradient id="paint1_linear_3100_193424" x1="69.3955" y1="120.558" x2="72.8472" y2="23.1268" gradientUnits="userSpaceOnUse">
<stop stop-color="#BB772D"/>
<stop offset="0.286458" stop-color="#FCF296"/>
<stop offset="0.479167" stop-color="#FFFCE0"/>
<stop offset="0.697917" stop-color="#FCF296"/>
<stop offset="1" stop-color="#BB772D"/>
</linearGradient>
<clipPath id="clip0_3100_193424">
<rect width="128" height="128" fill="white"/>
</clipPath>
</defs>
</svg>
