<svg width="42" height="41" viewBox="0 0 42 41" fill="none" xmlns="http://www.w3.org/2000/svg">
<path fillRule="evenodd" clipRule="evenodd" d="M15.0968 0.016393L14.6741 0.0177555C13.506 0.0185869 12.3302 0.0214096 11.1744 0.20781C10.6761 0.291662 10.1787 0.346238 9.67597 0.394592C8.87565 0.466256 8.14199 0.650909 7.37652 0.889848L7.11614 0.971918C6.57905 1.13683 6.05809 1.30415 5.55987 1.56623C3.21471 2.89977 1.69134 4.84584 0.897483 7.4209L0.827222 7.65645C0.372925 9.13328 0.26422 10.7235 0.169622 12.258L0.153561 12.5266C0.00421882 14.9608 -0.00623589 17.3931 0.00206332 19.8311C0.00371865 20.3119 0.00434559 20.7927 0.00392573 21.2734C0.00384604 21.3578 0.00375963 21.4422 0.00367323 21.5266C0.00151121 23.6377 -0.000651091 25.7491 0.102341 27.8583L0.11383 28.0861C0.282275 31.5002 0.755513 35.4475 3.40267 37.9148L3.57436 38.068C4.64396 39.082 6.04632 39.8346 7.47975 40.1848L7.75184 40.2414C7.90683 40.2742 8.06197 40.3064 8.21726 40.3377C8.44777 40.3795 8.67354 40.4261 8.90036 40.485C10.9109 41.023 10.9109 41.023 15.3369 40.9864C15.7065 40.9833 16.076 40.9814 16.4456 40.98C17.2408 40.9771 18.036 40.9723 18.8312 40.9659C18.8715 40.8763 18.8932 40.828 18.9222 40.7845C18.956 40.7337 18.9997 40.6896 19.0944 40.5938C19.9179 39.7182 20.6502 38.7965 21.3255 37.8023L21.4932 37.5529C21.9148 36.9277 22.2931 36.2894 22.6454 35.6228C22.2235 35.6266 21.8015 35.6297 21.3795 35.6317L20.8575 35.6342C20.8009 35.6347 20.7443 35.6352 20.6878 35.6358C19.7774 35.6448 18.8827 35.6537 17.9821 35.4892C17.811 35.4554 17.6392 35.4247 17.4671 35.3962C16.7648 35.282 16.0925 35.1118 15.4427 34.8191C15.2182 34.7144 14.998 34.62 14.7641 34.5379C12.3843 33.7068 10.3055 32.0255 8.7547 30.0678L8.56917 29.8269C8.14769 29.2907 7.77222 28.7373 7.43399 28.1459C5.48835 24.6497 4.7466 20.4871 5.85679 16.5838L5.93555 16.3333C6.12689 15.6973 6.33509 15.076 6.60672 14.4695C8.22921 10.9739 11.0012 7.91237 14.6782 6.51913L14.8354 6.46218V6.28106C14.9574 6.28106 15.0248 6.28106 15.0908 6.27152C15.1721 6.25976 15.2513 6.23351 15.4282 6.17493C16.9946 5.61397 18.4274 5.34657 20.0926 5.34164L20.324 5.34149C21.211 5.33934 22.0722 5.35719 22.9485 5.51133L23.1903 5.55657C23.9447 5.6723 24.6594 5.85152 25.3854 6.08397L25.6764 6.17918C26.2666 6.37001 26.8159 6.57558 27.3522 6.88872C27.4856 6.96772 27.6201 7.04486 27.7555 7.12025C28.6168 7.59505 29.4391 8.08582 30.2072 8.70109L30.4555 8.90733C30.8306 9.21392 31.1723 9.51982 31.4828 9.89218C31.5492 9.97673 31.58 10.016 31.6128 10.0535C31.6412 10.0859 31.6711 10.1171 31.7269 10.1752L31.9993 10.2657C31.9993 10.3606 31.9993 10.4058 32.0143 10.4453C32.0279 10.4812 32.0538 10.5125 32.1033 10.5721C33.8554 12.3971 35.0324 14.9401 35.5043 17.4049L35.5411 17.6012C35.8391 19.1065 35.9715 20.6874 35.7523 22.2143L35.7227 22.4009C35.7168 22.4391 35.7109 22.4774 35.705 22.5156C35.5559 23.4823 35.4059 24.4547 35.1144 25.3898C35.0748 25.5104 35.0355 25.631 34.9962 25.7517C34.2906 28.0189 33.4156 30.1813 32.2171 32.2366L32.0902 32.4532C30.8578 34.5793 29.4699 36.5889 27.8598 38.4493L27.6402 38.7019C27.2902 39.1139 26.9296 39.5046 26.5448 39.8849C26.1912 40.2283 25.8685 40.5892 25.5515 40.9659C28.1686 41.0096 30.7064 40.9185 33.2708 40.332V40.1509C34.1935 40.0957 35.0949 39.7484 35.8856 39.2789L36.086 39.1547C36.4264 38.953 36.7595 38.7458 37.085 38.5208C39.1894 36.915 40.2754 34.4223 40.6815 31.8704L40.7176 31.6381C41.2077 28.6285 41.2077 28.6285 41.1903 21.7114C41.189 21.2195 41.1884 20.7277 41.1885 20.2358C41.1885 19.7491 41.1883 19.2624 41.1878 18.7756L41.1869 18.0724C41.1865 16.8552 41.18 15.6387 41.1425 14.422L41.1309 14.0625C41.1094 13.3764 41.0785 12.6944 41.011 12.0111L40.99 11.8053C40.9761 11.6505 40.9628 11.4955 40.9494 11.3405C40.8518 10.2084 40.7539 9.07332 40.4529 7.97448L40.3543 7.63947C39.9763 6.32291 39.4271 4.98729 38.538 3.92647C36.2608 1.42428 33.2402 0.469919 29.9474 0.176767L29.7478 0.159434C28.1545 0.0206771 26.569 -0.00544277 24.9704 0.000854781C24.574 0.00251255 24.1776 0.00300928 23.7811 0.00310247C23.112 0.00322217 22.4428 0.00411108 21.7737 0.00609466C20.9166 0.00873034 20.0595 0.0103099 19.2024 0.0107133C18.4509 0.0110648 17.6993 0.0119415 16.9478 0.0131768L16.2325 0.0142186C15.8539 0.0146236 15.4753 0.015219 15.0968 0.016393ZM25.814 15.2378L25.6259 15.0772C23.3964 13.1202 20.216 12.5612 17.4562 13.764L17.1956 13.9099C16.3606 14.3685 15.7116 14.9044 15.0596 15.5935C13.5623 17.2255 13.114 19.1095 13.207 21.2727C13.4155 23.0018 14.2496 24.882 15.6577 25.9867L15.8358 26.1214C17.1124 27.225 18.6582 27.8256 20.3482 27.8643L20.6232 27.8667C21.253 27.8735 21.8041 27.8069 22.4083 27.6266C22.5622 27.58 22.7173 27.537 22.8732 27.4975C24.0261 27.2123 25.1459 26.4359 25.9641 25.5988C27.4443 23.8997 28.0669 21.9843 27.9942 19.7665C27.9005 18.1266 27.0336 16.3533 25.814 15.2378Z" fill="#267EEC"/>
</svg>
