<svg xmlns="http://www.w3.org/2000/svg" viewBox="0 0 16 16"><defs><style>.cls-1{fill:#fa5420;}</style></defs><g id="avatars_icons" data-name="avatars &amp; icons"><g id="New_Symbol" data-name="New Symbol"><path class="cls-1" d="M13.22,4.83c-1.38.16-1.77,1.58-2.8,2.81A3.11,3.11,0,0,1,7,8.44c1.39-.17,1.79-1.61,2.85-2.83A3,3,0,0,1,13.22,4.83Zm-5,2.41a3.1,3.1,0,0,0,1-3.38C8.64,2.34,7.56,1.27,8.13,0a3.19,3.19,0,0,0-1,3.38C7.68,4.9,8.8,6,8.22,7.24ZM8.12,7A3.19,3.19,0,0,0,6.38,3.89C4.89,3.24,3.32,3.3,2.79,2A3.07,3.07,0,0,0,4.6,5.07C6.1,5.7,7.59,5.67,8.12,7ZM5.85,10.67H9.73l.9-1.82H5.85ZM6.47,16H6.8L9,10.91H6.47Z"/></g></g></svg>