<svg width="16" height="16" viewBox="0 0 16 16" fill="none" xmlns="http://www.w3.org/2000/svg">
<path d="M0.0618938 7H1.07089C1.22013 5.95667 1.59943 4.98756 2.15575 4.14571L1.43586 3.42581C0.711022 4.46404 0.226214 5.68225 0.0618938 7Z" fill="#3B45FD"></path>
<path d="M2.33812 2.34818L3.04523 3.05528C3.60952 2.48985 4.26999 2.02042 5 1.67363L5 0.581517C3.99507 0.988303 3.09161 1.59336 2.33812 2.34818Z" fill="#3B45FD"></path>
<path d="M6 0.252035L6 1.28988C6.63371 1.10128 7.30503 1 8 1C8.33952 1 8.6734 1.02417 9 1.07089V0.0618938C8.67241 0.0210433 8.33866 0 8 0C7.3094 0 6.63924 0.087506 6 0.252035Z" fill="#3B45FD"></path>
<path d="M10 0.252035V1.28988C10.899 1.55744 11.7223 2.00074 12.4301 2.57994L13.1403 1.86974C12.2407 1.11456 11.1723 0.55377 10 0.252035Z" fill="#3B45FD"></path>
<path d="M14.1303 2.85969L13.4201 3.56989C13.9993 4.27768 14.4426 5.101 14.7101 6L15.748 6C15.4462 4.82768 14.8854 3.75936 14.1303 2.85969Z" fill="#3B45FD"></path>
<path d="M15.9381 7L14.9291 7C14.9758 7.3266 15 7.66048 15 8C15 8.69497 14.8987 9.36629 14.7101 10L15.748 10C15.9125 9.36076 16 8.6906 16 8C16 7.66134 15.979 7.32759 15.9381 7Z" fill="#3B45FD"></path>
<path d="M15.4185 11L14.3264 11C13.9796 11.73 13.5102 12.3905 12.9447 12.9548L13.6518 13.6619C14.4066 12.9084 15.0117 12.0049 15.4185 11Z" fill="#3B45FD"></path>
<path d="M12.5742 14.5641L11.8543 13.8442C11.0124 14.4006 10.0433 14.7799 9 14.9291V15.9381C10.3177 15.7738 11.536 15.289 12.5742 14.5641Z" fill="#3B45FD"></path>
<path d="M8 16V15C6.92554 15 5.90876 14.7583 5 14.3265L5 15.4183C5.92687 15.7935 6.93978 16 8 16Z" fill="#3B45FD"></path>
<path d="M4 15.7822L4 14.7803L1.31716 14.948C1.16703 14.9573 1.04267 14.833 1.05205 14.6828L1.21973 12H0.217779L0.0539996 14.6205C0.00708404 15.3711 0.628888 15.9929 1.37954 15.946L4 15.7822Z" fill="#3B45FD"></path>
<path d="M0.581662 11H1.6735C1.24175 10.0912 1 9.07446 1 8H0C0 9.06022 0.206493 10.0731 0.581662 11Z" fill="#3B45FD"></path>
<path d="M8.00004 14C11.3137 14 14 11.3137 14 8C14 4.68631 11.3137 2.00003 8.00004 2.00003C4.68634 2.00003 2.00006 4.68631 2.00006 8C2.00006 8.81893 2.16412 9.59954 2.46118 10.3108L2.00003 14L5.68926 13.5388C6.40048 13.8359 7.1811 14 8.00004 14Z" fill="#3B45FD"></path>
<style>@media (prefers-color-scheme: light) { path { fill:#3B45FD; } }
@media (prefers-color-scheme: dark) { path { fill:#FFFFFF; } }
</style>
</svg>